<?xml version="1.0" encoding="utf-8"?>
<!DOCTYPE svg PUBLIC "-//W3C//DTD SVG 1.0//EN" "http://www.w3.org/TR/2001/REC-SVG-20010904/DTD/svg10.dtd">
<svg version="1.0" xmlns="http://www.w3.org/2000/svg" width="3840px" height="2160px" viewBox="0 0 3840 2160" preserveAspectRatio="xMidYMid meet">
 <g fill="#b211fd">
  <path d="M1797 2113.9 c-27.2 -14.3 -54.4 -28.7 -60.5 -31.9 -12.1 -6.4 -59 -31.1 -186 -98 -46.2 -24.3 -88 -46.4 -93 -49 -10 -5.3 -181.6 -95.8 -207.5 -109.4 l-16.5 -8.6 -48.7 -365.2 c-26.8 -200.9 -48.6 -365.3 -48.4 -365.5 0.1 -0.1 146.7 216.9 325.7 482.4 371.2 550.6 385.1 571.3 384.7 571.3 -0.2 0 -22.6 -11.7 -49.8 -26.1z"/>
  <path d="M1528 1554.3 c-215.2 -321.1 -391.5 -584.5 -391.7 -585.3 -0.2 -0.8 -28 -213.4 -61.8 -472.5 -33.8 -259.1 -61.6 -472.2 -61.8 -473.8 -0.2 -1.5 -0.3 -2.7 -0.2 -2.7 0.1 0 45.1 74.4 100 165.4 l100 165.5 197 71.2 c108.3 39.2 197.1 71.3 197.3 71.4 0.2 0.2 8.9 38.8 39.7 177 6.3 28 11.3 51 11.2 51.2 -0.2 0.1 -85.7 -30.8 -190.2 -68.8 -104.5 -37.9 -190.5 -68.9 -191.3 -68.9 -1 0 -1.2 3.8 -1 17.7 l0.3 17.7 195.5 71.5 c107.5 39.3 195.6 71.5 195.8 71.7 0.7 0.5 33.3 149.6 32.9 150.1 -0.3 0.2 -95.2 -34.8 -210.9 -77.8 -115.6 -43 -211.1 -78.4 -212 -78.7 -1.7 -0.4 -1.8 0.9 -1.8 17.5 l0 17.9 216.3 80.8 c118.9 44.4 217.2 81.5 218.4 82.4 1.3 1 48.9 50 105.9 108.9 57 59 104 107.3 104.5 107.3 0.5 0 48 -48.8 105.6 -108.4 l104.7 -108.4 217.3 -81.3 217.3 -81.4 0 -17.8 c0 -16.6 -0.1 -17.9 -1.7 -17.5 -1 0.3 -96.5 35.7 -212.1 78.7 -115.7 43.1 -210.6 78 -210.9 77.7 -0.5 -0.4 32.2 -149.5 32.9 -150.1 0.2 -0.1 88.3 -32.3 195.8 -71.6 l195.5 -71.5 0.3 -17.7 c0.2 -14 0 -17.7 -1.1 -17.7 -0.7 0 -86.7 31 -191.2 68.9 -104.5 38 -190 68.9 -190.1 68.8 -0.3 -0.4 50.4 -227.8 50.8 -228.2 0.2 -0.1 89 -32.2 197.3 -71.4 l197 -71.2 100 -165.5 c54.9 -90.9 99.9 -165.3 100 -165.1 0.2 0.1 -106 814.5 -122.5 940.4 l-1.3 9.3 -391.3 583.7 c-215.3 321.1 -391.8 583.9 -392.2 584.1 -0.5 0.1 -177 -262.4 -392.2 -583.5z m274.5 -233.8 c28.3 -65.4 51.4 -119.3 51.2 -119.8 -0.2 -0.6 -116.6 -45.4 -258.7 -99.8 l-258.5 -98.7 -0.9 2.9 c-0.9 2.8 -0.5 3.5 6.1 10.2 3.9 4 81.4 85 172.4 180.2 91 95.1 181.2 189.4 200.4 209.6 21.7 22.6 35.3 36.1 35.7 35.4 0.4 -0.6 23.9 -54.6 52.3 -120z m500 -100.5 c103.8 -108.6 191.9 -200.7 195.8 -204.7 6.6 -6.7 7 -7.4 6.1 -10.1 l-0.9 -3 -258.5 98.8 c-217.5 83.1 -258.5 99.1 -258.4 100.7 0.1 1 22.9 54.4 50.8 118.7 27.9 64.3 51.1 117.9 51.6 119.1 1.1 2.9 -15.4 19.9 213.5 -219.5z"/>
  <path d="M2000.7 2131.1 c6.3 -9.8 708.6 -1051.1 708.8 -1050.9 0.3 0.4 -97.2 730.8 -97.6 731.2 -0.2 0.2 -13.9 7.4 -30.4 16.1 -28.4 14.9 -97.1 51.1 -308.5 162.5 -50.9 26.8 -130.7 68.9 -177.5 93.5 -46.7 24.6 -87.4 46 -90.2 47.6 -6.5 3.6 -6.9 3.6 -4.6 0z"/>
  <path d="M2261.9 2105.9 c-6.3 -1 -11.9 -4 -16.3 -9 -5.3 -5.8 -7.7 -11.7 -7.9 -19.2 -0.2 -12.6 5.5 -22.2 16.8 -27.8 5.8 -2.8 7.1 -3.1 13.7 -2.7 17 0.9 28.3 13.2 28 30.4 -0.2 18 -16.2 31.2 -34.3 28.3z m15.7 -6.7 c17.8 -9.2 17.7 -36.6 -0.3 -45.3 -16.1 -7.8 -33.8 4.3 -33.7 23.1 0 18.4 18.3 30.3 34 22.2z"/>
  <path d="M2256.2 2077.3 l0.3 -16.8 8.8 0 c8.5 0 9 0.1 11.3 2.8 3.3 3.9 3.1 8.1 -0.5 11.8 -1.6 1.6 -2.5 2.9 -2 2.9 1.2 0 3.5 4.9 4.3 9.3 0.4 2.1 1 4.5 1.3 5.3 0.4 1 -0.3 1.4 -2.5 1.4 -2.9 0 -3.1 -0.3 -4.2 -5.5 -1.4 -6.6 -3 -8.5 -7.6 -8.5 l-3.4 0 0 7 0 7 -3 0 -3 0 0.2 -16.7z m15.7 -3.7 c0.6 -0.4 1.1 -2 1.1 -3.6 0 -3.5 -3.2 -6 -7.7 -6 l-3.3 0 0 5.4 c0 3.5 0.5 5.6 1.3 5.9 1.3 0.4 6.8 -0.7 8.6 -1.7z"/>
  <path d="M1836.9 1019.1 l-81.3 -97 -73.3 -429.3 c-40.2 -236.1 -74.3 -435.8 -75.6 -443.7 -1.6 -9.5 -2 -13.9 -1.2 -12.8 0.7 1 54 88.8 118.5 195.2 l117.4 193.5 78.6 0 78.6 0 117.4 -193.5 c64.5 -106.4 117.8 -194.3 118.5 -195.2 0.8 -1.1 0.4 3.4 -1.2 12.8 -1.3 7.9 -35.4 207.6 -75.6 443.7 l-73.3 429.3 -81.3 97 c-54.6 65.2 -81.8 96.9 -83.1 96.9 -1.3 0 -28.5 -31.7 -83.1 -96.9z m116.5 -305.1 c16.2 -60.2 29.8 -110.7 30.1 -112.2 l0.7 -2.8 -61.2 0 -61.2 0 0.5 2.7 c0.3 1.5 13.9 52.8 30.4 114 18.9 70.5 30.1 110.6 30.5 109.5 0.5 -0.9 14 -51 30.2 -111.2z"/>
 </g>
<g opacity="0.5" transform="rotate(-45, 1920.0, 1080.0)">
  <text x="50%" y="50%" font-size="20" text-anchor="middle" fill="lightgray" dominant-baseline="middle">
    generated by vectorizer.io
  </text>
</g>
</svg>